<?xml version="1.0" standalone="no"?>
<!DOCTYPE svg PUBLIC "-//W3C//DTD SVG 20010904//EN"
 "http://www.w3.org/TR/2001/REC-SVG-20010904/DTD/svg10.dtd">
<svg version="1.0" xmlns="http://www.w3.org/2000/svg"
 width="40.000000pt" height="40.000000pt" viewBox="0 0 40.000000 40.000000"
 preserveAspectRatio="xMidYMid meet">

<g transform="translate(0.000000,40.000000) scale(0.100000,-0.100000)"
fill="#000000" stroke="none">
<path d="M125 371 c-48 -22 -79 -54 -100 -103 -21 -51 -19 -94 6 -145 56 -117
209 -143 300 -52 21 21 39 43 39 49 0 5 -57 11 -137 12 l-136 3 51 28 c29 16
52 33 52 38 0 5 -20 19 -45 31 -25 12 -45 26 -45 30 0 4 58 8 130 8 73 0 130
4 130 9 0 20 -56 75 -95 92 -51 24 -99 24 -150 0z m-32 -166 c7 -17 -8 -29
-28 -21 -17 6 -9 36 10 36 7 0 15 -7 18 -15z"/>
</g>
</svg>
