<svg id="svg" version="1.1" xmlns="http://www.w3.org/2000/svg" xmlns:xlink="http://www.w3.org/1999/xlink" width="400" height="130.53892215568862" viewBox="0, 0, 400,130.53892215568862"><g id="svgg"><path id="path0" d="M34.667 36.649 L 34.667 42.489 36.458 42.536 L 38.250 42.583 38.292 58.708 L 38.335 74.833 36.501 74.833 L 34.667 74.833 34.667 80.668 L 34.667 86.502 48.792 86.459 L 62.917 86.417 62.917 80.667 L 62.917 74.917 60.625 74.870 L 58.333 74.824 58.333 68.887 L 58.333 62.950 59.994 63.059 C 63.819 63.309,65.445 64.154,66.284 66.324 C 66.550 67.012,66.583 67.995,66.629 76.793 L 66.679 86.502 77.965 86.459 L 89.250 86.417 89.250 80.667 L 89.250 74.917 87.649 74.869 L 86.048 74.822 85.953 71.119 C 85.781 64.429,84.468 62.220,80.000 61.109 C 78.815 60.814,78.588 60.162,79.559 59.841 C 83.828 58.433,86.497 52.909,86.288 45.917 C 86.028 37.213,81.961 32.828,72.667 31.230 C 71.288 30.993,68.732 30.949,52.875 30.884 L 34.667 30.809 34.667 36.649 M64.271 42.961 C 65.974 43.847,66.392 45.065,66.307 48.892 C 66.202 53.599,65.461 54.333,60.808 54.333 L 58.333 54.333 58.333 48.397 L 58.333 42.460 60.958 42.532 C 63.230 42.595,63.676 42.652,64.271 42.961 " stroke="none" fill="#fcfbfb" fill-rule="evenodd"></path><path id="path1" d="M18.234 11.920 C 18.176 12.152,18.166 18.864,18.212 26.837 C 18.258 34.810,18.248 41.333,18.189 41.333 C 18.131 41.333,18.127 49.489,18.181 59.458 C 18.282 78.105,18.295 78.468,19.004 82.417 C 19.570 85.564,19.712 86.188,19.910 86.389 C 20.015 86.496,20.421 87.521,20.811 88.667 C 21.201 89.813,21.933 91.616,22.438 92.675 C 22.943 93.734,23.335 94.672,23.311 94.758 C 23.249 94.977,23.949 96.285,24.216 96.449 C 24.492 96.619,26.833 100.113,26.833 100.356 C 26.833 100.870,31.783 106.237,33.429 107.507 C 33.840 107.824,34.455 108.328,34.796 108.627 C 35.576 109.310,38.544 111.354,39.517 111.878 C 39.920 112.095,41.044 112.699,42.014 113.220 C 44.041 114.308,46.668 115.411,48.000 115.734 C 48.504 115.856,49.592 116.157,50.417 116.402 C 58.265 118.731,70.802 118.036,78.252 114.858 C 79.660 114.257,82.905 112.591,83.523 112.150 C 83.768 111.976,84.032 111.833,84.111 111.833 C 84.310 111.833,87.010 109.970,88.773 108.614 C 90.649 107.172,94.274 103.609,95.437 102.063 C 95.928 101.411,96.443 100.783,96.582 100.668 C 96.720 100.553,96.833 100.361,96.833 100.240 C 96.833 100.023,98.656 97.247,99.459 96.240 C 99.688 95.953,99.970 95.463,100.085 95.151 C 100.201 94.839,100.758 93.577,101.323 92.347 C 101.889 91.117,102.641 89.280,102.994 88.264 C 103.348 87.248,103.755 86.139,103.901 85.800 C 104.286 84.899,105.118 80.552,105.330 78.333 C 105.457 76.996,105.498 66.615,105.465 44.000 L 105.417 11.583 61.878 11.541 L 18.340 11.499 18.234 11.920 M72.804 31.065 C 81.565 32.523,85.897 36.947,86.496 45.049 C 86.997 51.813,84.592 57.450,80.252 59.687 C 78.943 60.362,78.913 60.649,80.121 60.921 C 84.411 61.887,85.963 64.502,86.122 71.036 L 86.210 74.655 87.813 74.703 L 89.417 74.750 89.417 80.667 L 89.417 86.583 78.000 86.583 L 66.583 86.583 66.494 76.917 C 66.432 70.174,66.346 67.082,66.210 66.694 C 65.378 64.322,63.926 63.520,59.958 63.237 L 58.333 63.121 58.333 68.889 L 58.333 74.658 60.708 74.704 L 63.083 74.750 63.083 80.667 L 63.083 86.583 48.875 86.626 L 34.667 86.669 34.667 80.668 L 34.667 74.667 36.417 74.667 L 38.167 74.667 38.167 58.667 L 38.167 42.667 36.417 42.667 L 34.667 42.667 34.667 36.654 L 34.667 30.642 52.875 30.710 C 69.102 30.771,71.271 30.810,72.804 31.065 M191.707 47.458 L 191.750 61.583 193.625 61.630 L 195.500 61.678 195.500 54.028 L 195.500 46.379 196.444 46.190 C 200.528 45.370,200.562 45.436,200.667 54.417 L 200.750 61.583 202.616 61.630 L 204.483 61.677 204.592 61.095 C 204.858 59.676,204.565 46.122,204.249 45.261 C 203.382 42.895,200.343 41.860,196.292 42.552 L 195.500 42.687 195.500 38.010 L 195.500 33.333 193.582 33.333 L 191.665 33.333 191.707 47.458 M225.000 37.977 L 225.000 42.621 224.125 42.459 C 220.287 41.746,216.849 43.586,216.163 46.720 C 215.825 48.267,216.010 58.616,216.389 59.310 C 217.922 62.121,221.997 62.749,227.788 61.065 L 228.667 60.810 228.667 47.072 L 228.667 33.333 226.833 33.333 L 225.000 33.333 225.000 37.977 M343.667 47.500 L 343.667 61.667 345.583 61.667 L 347.500 61.667 347.500 54.019 L 347.500 46.372 347.875 46.265 C 349.108 45.911,351.080 45.963,351.667 46.363 C 352.624 47.017,352.647 47.210,352.657 54.792 L 352.667 61.667 354.592 61.667 L 356.518 61.667 356.467 53.792 C 356.411 44.991,356.418 45.044,355.136 43.719 C 353.998 42.544,351.295 42.086,348.208 42.547 L 347.333 42.678 347.333 38.006 L 347.333 33.333 345.500 33.333 L 343.667 33.333 343.667 47.500 M274.333 47.589 L 274.333 61.678 276.208 61.630 L 278.083 61.583 278.126 47.542 L 278.169 33.500 276.251 33.500 L 274.333 33.500 274.333 47.589 M393.374 47.542 L 393.417 61.583 395.292 61.630 L 397.167 61.678 397.167 47.589 L 397.167 33.500 395.249 33.500 L 393.331 33.500 393.374 47.542 M143.500 47.667 L 143.500 61.667 145.500 61.667 L 147.500 61.667 147.500 55.977 L 147.500 50.288 148.273 50.394 C 148.699 50.452,149.224 50.500,149.440 50.500 C 149.656 50.500,149.833 50.573,149.833 50.663 C 149.833 50.752,150.471 52.113,151.250 53.686 C 152.029 55.259,152.667 56.622,152.667 56.714 C 152.667 56.806,153.187 57.958,153.822 59.274 L 154.978 61.667 157.156 61.667 C 158.940 61.667,159.333 61.623,159.333 61.427 C 159.333 61.213,158.289 58.951,154.953 51.942 C 154.069 50.084,153.969 49.780,154.202 49.650 C 155.316 49.027,156.181 48.100,156.780 46.889 L 157.417 45.601 157.417 42.005 L 157.417 38.410 156.858 37.274 C 155.323 34.156,154.056 33.670,147.458 33.668 L 143.500 33.667 143.500 47.667 M240.167 35.500 L 240.167 37.333 243.083 37.333 L 246.000 37.333 246.000 49.500 L 246.000 61.667 247.981 61.667 C 249.894 61.667,249.965 61.654,250.062 61.292 C 250.117 61.085,250.163 55.610,250.164 49.125 L 250.167 37.333 253.083 37.333 L 256.000 37.333 256.000 35.500 L 256.000 33.667 248.083 33.667 L 240.167 33.667 240.167 35.500 M208.333 38.000 L 208.333 40.333 210.250 40.333 L 212.167 40.333 212.167 38.000 L 212.167 35.667 210.250 35.667 L 208.333 35.667 208.333 38.000 M282.204 37.958 L 282.250 40.250 284.125 40.297 L 286.000 40.344 286.000 38.005 L 286.000 35.667 284.079 35.667 L 282.157 35.667 282.204 37.958 M152.268 37.759 C 153.319 38.545,153.785 41.024,153.424 43.913 C 153.148 46.127,151.249 47.032,148.125 46.437 L 147.500 46.318 147.500 41.809 L 147.500 37.300 149.655 37.358 C 151.514 37.409,151.872 37.464,152.268 37.759 M164.833 42.498 C 164.329 42.576,163.484 42.731,162.955 42.843 L 161.993 43.047 162.038 46.149 L 162.083 49.250 163.708 49.298 L 165.333 49.345 165.333 47.849 C 165.333 46.085,165.271 46.147,167.153 46.040 C 169.311 45.917,169.806 46.495,169.826 49.167 L 169.833 50.083 167.708 50.742 C 162.957 52.214,161.368 53.583,161.203 56.347 C 160.889 61.596,166.119 63.553,173.221 60.845 L 173.692 60.665 173.632 53.624 C 173.563 45.492,173.547 45.396,171.997 43.847 C 170.699 42.548,167.905 42.022,164.833 42.498 M180.550 42.644 C 178.197 43.457,176.813 45.324,176.780 47.733 C 176.741 50.558,177.682 51.756,181.398 53.611 C 183.832 54.826,184.500 55.486,184.500 56.675 C 184.500 58.608,181.442 58.922,179.471 57.192 L 178.881 56.674 177.440 57.678 C 175.759 58.852,175.749 58.886,176.811 59.880 C 180.779 63.591,187.863 62.181,188.490 57.556 C 188.920 54.390,187.784 52.687,183.847 50.593 C 181.487 49.338,180.741 48.770,180.572 48.099 C 180.162 46.462,182.010 45.331,183.975 46.016 L 184.500 46.199 184.500 47.600 L 184.500 49.000 186.167 49.000 L 187.833 49.000 187.833 46.419 L 187.833 43.838 186.835 43.334 C 184.870 42.342,182.254 42.055,180.550 42.644 M261.750 42.502 C 261.200 42.583,260.356 42.733,259.875 42.836 L 259.000 43.024 259.000 46.185 L 259.000 49.345 260.625 49.298 L 262.250 49.250 262.298 47.730 L 262.345 46.210 263.113 46.105 C 265.994 45.710,266.669 46.220,266.664 48.786 L 266.661 50.083 264.456 50.798 C 259.241 52.488,258.067 53.662,258.193 57.060 C 258.279 59.402,258.861 60.438,260.589 61.333 L 261.716 61.917 264.150 61.917 C 266.634 61.917,268.118 61.659,269.883 60.920 L 270.517 60.655 270.462 53.536 C 270.398 45.329,270.408 45.386,268.928 43.906 C 267.569 42.547,264.937 42.032,261.750 42.502 M294.337 42.590 C 292.561 43.088,291.035 44.367,290.269 46.000 C 289.933 46.715,289.917 47.002,289.917 52.167 L 289.917 57.583 290.383 58.534 C 292.216 62.266,299.003 63.262,302.292 60.282 C 302.809 59.813,302.777 59.660,301.875 58.243 C 300.972 56.826,301.048 56.864,300.233 57.417 C 298.821 58.376,296.477 58.626,295.170 57.958 C 293.978 57.349,293.759 56.910,293.693 54.991 L 293.636 53.339 298.193 53.294 L 302.750 53.250 302.798 51.429 C 302.980 44.435,299.760 41.070,294.337 42.590 M318.230 42.491 C 315.732 43.088,314.000 45.311,314.000 47.920 C 314.000 50.615,315.025 51.846,318.859 53.757 C 321.328 54.988,322.121 55.989,321.605 57.225 C 320.973 58.736,318.280 58.694,316.698 57.147 L 316.182 56.642 314.764 57.613 C 313.060 58.779,312.997 59.009,314.105 59.984 C 318.779 64.099,326.242 61.633,325.781 56.127 C 325.573 53.655,324.539 52.416,321.260 50.708 C 318.550 49.298,317.833 48.663,317.833 47.676 C 317.833 46.203,319.409 45.412,321.142 46.016 L 321.667 46.199 321.667 47.600 L 321.667 49.000 323.333 49.000 L 325.000 49.000 325.000 46.349 L 325.000 43.698 323.792 43.200 C 321.822 42.389,319.761 42.126,318.230 42.491 M332.879 42.579 C 331.266 43.034,329.794 44.292,329.137 45.778 C 328.246 47.793,328.270 56.545,329.173 58.643 C 330.648 62.073,336.061 63.095,339.888 60.668 C 340.965 59.985,340.976 59.858,340.081 58.421 C 339.130 56.896,339.122 56.890,338.495 57.337 C 337.193 58.264,334.956 58.602,333.833 58.041 C 332.631 57.441,332.499 56.853,332.504 52.090 C 332.508 46.599,332.759 45.996,335.033 46.002 C 336.674 46.007,336.648 45.978,336.703 47.810 L 336.750 49.417 338.417 49.417 L 340.083 49.417 340.129 46.288 C 340.164 43.876,340.125 43.141,339.962 43.079 C 338.373 42.476,334.270 42.187,332.879 42.579 M364.417 42.556 C 362.490 43.056,360.812 44.515,360.224 46.201 C 359.742 47.584,359.762 56.830,360.250 58.156 C 362.056 63.063,370.238 63.347,372.438 58.578 C 373.463 56.355,373.462 47.986,372.435 45.744 C 371.245 43.144,367.652 41.716,364.417 42.556 M381.219 42.508 C 379.310 42.885,377.675 44.217,376.964 45.975 C 376.369 47.447,376.377 56.706,376.974 58.281 C 378.763 62.992,386.701 63.327,388.904 58.784 C 389.730 57.080,389.994 48.627,389.289 46.455 C 388.275 43.333,385.043 41.752,381.219 42.508 M58.333 48.394 L 58.333 54.167 60.640 54.167 C 65.253 54.167,65.999 53.473,66.128 49.068 C 66.284 43.709,65.573 42.842,60.907 42.700 L 58.333 42.622 58.333 48.394 M208.333 52.250 L 208.333 61.667 210.250 61.667 L 212.167 61.667 212.167 52.250 L 212.167 42.833 210.250 42.833 L 208.333 42.833 208.333 52.250 M282.243 43.042 C 282.199 43.156,282.183 47.375,282.207 52.417 L 282.250 61.583 284.125 61.630 L 286.000 61.678 286.000 52.255 L 286.000 42.833 284.161 42.833 C 282.844 42.833,282.300 42.892,282.243 43.042 M224.708 46.250 C 224.978 46.360,225.000 46.801,225.000 52.167 L 225.000 57.966 223.945 58.150 C 221.789 58.525,220.560 58.256,220.066 57.301 C 219.663 56.520,219.792 47.757,220.217 47.109 C 220.893 46.079,223.202 45.638,224.708 46.250 M297.843 46.451 C 298.563 47.056,298.833 47.774,298.833 49.078 L 298.833 50.167 296.232 50.167 L 293.631 50.167 293.691 48.845 C 293.804 46.374,296.146 45.023,297.843 46.451 M368.123 46.436 C 369.107 47.157,369.166 47.490,369.166 52.267 C 369.167 56.513,369.158 56.631,368.788 57.184 C 367.689 58.829,364.908 58.725,364.042 57.006 C 363.308 55.551,363.517 47.705,364.315 46.769 C 365.022 45.940,367.189 45.751,368.123 46.436 M384.500 46.292 C 385.649 46.866,385.750 47.339,385.750 52.167 C 385.750 56.083,385.724 56.469,385.417 57.083 C 384.614 58.688,381.667 58.817,380.743 57.289 C 380.250 56.475,380.242 47.871,380.733 47.060 C 381.347 46.047,383.237 45.661,384.500 46.292 M266.741 58.482 C 266.375 58.848,262.997 58.571,262.565 58.140 C 261.137 56.714,262.142 55.054,265.088 53.973 L 266.750 53.363 266.796 55.872 C 266.822 57.251,266.797 58.426,266.741 58.482 M169.833 55.990 L 169.833 58.480 169.081 58.592 C 164.165 59.330,163.445 55.737,168.157 53.985 C 169.971 53.310,169.833 53.145,169.833 55.990 " stroke="none" fill="#fb743c" fill-rule="evenodd"></path><path id="path2" d="M13.343 21.172 C 10.620 25.385,10.486 32.265,13.054 35.994 L 13.452 36.572 12.518 38.428 C 11.156 41.133,10.427 42.806,9.521 45.298 L 8.717 47.513 8.615 46.048 C 8.210 40.235,8.112 39.584,7.546 38.959 C 6.738 38.066,5.238 39.406,4.558 41.627 C 3.582 44.814,5.437 51.455,7.513 52.206 C 7.750 52.291,7.752 52.454,7.538 53.859 C 7.189 56.148,7.197 61.792,7.552 63.988 C 7.972 66.584,7.948 66.749,7.292 65.737 C 4.551 61.510,-0.000 58.487,-0.000 60.894 C 0.000 64.480,4.309 69.527,8.397 70.730 C 9.023 70.914,9.063 70.971,9.579 72.418 C 10.677 75.494,12.648 79.945,13.582 81.458 C 13.822 81.848,13.989 82.167,13.953 82.167 C 13.916 82.167,13.256 81.787,12.485 81.323 C 7.736 78.464,5.036 78.445,6.323 81.278 C 8.167 85.339,12.348 87.690,16.244 86.855 C 16.759 86.744,17.233 87.288,20.042 91.210 C 20.826 92.305,23.331 94.982,23.332 94.727 C 23.333 94.623,22.929 93.700,22.436 92.676 C 21.942 91.652,21.211 89.844,20.811 88.657 C 19.848 85.799,19.461 85.848,20.340 88.716 C 20.754 90.066,20.493 89.797,18.525 86.845 C 15.088 81.692,13.341 78.471,13.684 77.917 C 15.033 75.735,15.252 74.685,15.236 70.500 C 15.218 65.737,14.863 64.000,13.908 64.000 C 12.589 64.000,11.158 68.667,11.415 72.125 C 11.549 73.923,11.498 73.875,10.697 71.458 C 9.620 68.205,8.882 65.109,8.604 62.667 L 8.518 61.917 9.551 61.157 C 11.761 59.531,13.919 55.774,14.744 52.115 C 15.511 48.714,14.160 48.625,11.742 51.917 C 11.472 52.283,11.209 52.621,11.157 52.667 C 10.868 52.919,9.816 54.610,9.135 55.917 L 8.353 57.417 8.441 56.417 C 8.711 53.381,9.538 49.667,10.596 46.750 C 10.928 45.833,11.280 44.840,11.378 44.542 C 11.525 44.094,11.641 44.000,12.046 44.000 C 13.384 44.000,15.430 43.201,17.292 41.952 L 18.333 41.253 18.333 38.956 L 18.333 36.659 17.042 37.351 C 16.331 37.732,15.450 38.243,15.083 38.487 C 13.896 39.277,13.889 39.280,14.217 38.778 C 14.382 38.526,14.699 37.976,14.922 37.557 C 15.390 36.678,17.564 33.420,18.032 32.899 C 18.300 32.599,18.339 32.326,18.298 31.034 L 18.250 29.520 16.969 31.218 C 16.265 32.152,15.596 33.142,15.484 33.417 C 15.141 34.259,15.116 33.520,15.403 31.018 C 15.870 26.944,15.598 20.741,14.932 20.294 C 14.411 19.944,13.985 20.179,13.343 21.172 M108.681 20.474 C 107.979 21.784,107.812 28.285,108.376 32.282 C 108.495 33.125,108.572 33.794,108.547 33.770 C 108.507 33.729,107.193 31.875,106.083 30.292 C 105.421 29.347,105.291 29.483,105.361 31.042 C 105.422 32.391,105.440 32.441,106.327 33.750 C 107.583 35.604,107.663 35.726,108.724 37.442 C 109.881 39.314,109.881 39.292,108.708 38.520 C 107.676 37.840,105.759 36.833,105.495 36.833 C 105.317 36.833,105.265 40.629,105.438 41.078 C 105.808 42.044,109.954 44.000,111.631 44.000 C 112.185 44.000,112.219 44.060,113.206 46.833 C 114.235 49.726,114.895 52.865,115.095 55.826 L 115.180 57.083 114.433 55.611 C 113.598 53.965,112.345 52.226,110.817 50.593 C 107.918 47.494,108.094 51.387,111.137 57.667 C 111.605 58.633,113.335 60.573,114.480 61.417 C 115.063 61.847,115.148 61.987,115.084 62.417 C 115.043 62.692,114.889 63.742,114.742 64.750 C 114.369 67.313,113.432 70.779,112.603 72.667 C 112.352 73.237,112.346 73.209,112.340 71.398 C 112.326 67.331,110.677 63.312,109.365 64.144 C 109.244 64.220,108.958 65.175,108.727 66.266 C 107.759 70.854,108.326 75.409,110.189 78.010 C 110.386 78.285,110.245 78.561,107.602 83.083 C 106.631 84.744,103.069 90.000,102.914 90.000 C 102.889 90.000,103.040 89.456,103.249 88.792 C 104.165 85.884,103.969 85.420,103.005 88.215 C 102.636 89.285,101.841 91.231,101.239 92.539 C 100.637 93.847,100.105 95.029,100.057 95.167 C 99.744 96.062,104.015 91.026,105.967 88.197 L 106.851 86.917 108.551 86.968 C 111.478 87.056,113.700 86.164,115.561 84.154 C 120.105 79.246,116.990 77.496,110.958 81.568 C 110.340 81.986,109.833 82.297,109.833 82.260 C 109.833 82.222,110.391 81.070,111.073 79.699 C 111.754 78.328,112.437 76.916,112.590 76.562 C 113.474 74.507,114.055 72.966,114.307 72.007 C 114.578 70.970,114.617 70.917,115.171 70.824 C 118.634 70.242,123.169 65.253,123.763 61.373 C 124.256 58.152,118.963 61.598,116.017 66.417 C 115.834 66.716,115.822 66.700,115.904 66.250 C 116.720 61.767,116.804 55.146,116.077 52.667 C 116.035 52.523,116.206 52.281,116.478 52.098 C 118.488 50.747,120.005 44.947,119.164 41.824 C 118.558 39.572,116.928 38.029,116.137 38.958 C 115.543 39.655,115.498 39.958,115.058 46.155 C 114.935 47.882,114.899 47.861,114.322 45.708 C 113.881 44.062,113.031 42.043,111.565 39.160 C 110.129 36.334,110.210 36.706,110.824 35.738 C 112.167 33.619,112.868 30.200,112.526 27.425 C 112.015 23.259,109.562 18.827,108.681 20.474 M233.540 86.625 L 233.583 95.750 234.875 95.799 L 236.167 95.847 236.167 91.757 L 236.167 87.667 238.833 87.667 L 241.500 87.667 241.500 86.333 L 241.500 85.000 238.833 85.000 L 236.167 85.000 236.167 82.583 L 236.167 80.167 239.083 80.167 L 242.000 80.167 242.000 78.833 L 242.000 77.500 237.749 77.500 L 233.497 77.500 233.540 86.625 M267.625 77.596 C 267.556 77.665,267.500 81.804,267.500 86.793 L 267.500 95.863 270.792 95.803 C 274.366 95.738,275.111 95.552,276.117 94.473 C 277.725 92.747,277.709 88.230,276.089 86.629 L 275.630 86.175 276.053 85.673 C 277.850 83.537,276.674 78.808,274.111 77.862 C 273.360 77.584,267.860 77.359,267.625 77.596 M273.238 80.358 C 273.862 80.642,274.235 81.760,274.122 83.007 C 273.963 84.752,273.458 85.167,271.489 85.167 L 270.333 85.167 270.333 82.667 L 270.333 80.167 271.575 80.167 C 272.259 80.167,273.007 80.253,273.238 80.358 M245.951 83.422 C 243.847 84.195,243.417 85.226,243.417 89.500 C 243.417 94.593,244.114 95.768,247.250 95.956 C 251.054 96.185,252.115 94.624,251.969 89.015 C 251.869 85.171,251.251 83.910,249.186 83.336 C 248.345 83.102,246.704 83.146,245.951 83.422 M259.153 83.228 C 259.115 83.262,258.476 83.337,257.733 83.395 C 256.328 83.503,254.752 83.761,254.487 83.925 C 254.398 83.980,254.333 86.498,254.333 89.927 L 254.333 95.833 255.583 95.833 L 256.833 95.833 256.833 90.938 L 256.833 86.042 257.354 85.938 C 257.641 85.880,258.391 85.833,259.021 85.833 L 260.167 85.833 260.167 84.500 L 260.167 83.167 259.694 83.167 C 259.435 83.167,259.191 83.194,259.153 83.228 M281.583 83.494 C 280.571 83.893,279.774 84.758,279.411 85.851 C 278.966 87.191,279.116 92.999,279.620 93.942 C 281.321 97.124,286.711 96.617,287.664 93.186 C 287.923 92.255,287.879 86.870,287.605 85.960 C 286.913 83.663,284.089 82.506,281.583 83.494 M302.281 83.326 C 300.369 83.941,299.284 86.525,300.145 88.419 C 300.509 89.220,301.134 89.719,302.935 90.645 C 304.872 91.640,305.300 92.240,304.657 93.057 C 304.079 93.793,302.672 93.662,301.706 92.781 L 301.328 92.437 300.382 93.106 C 299.212 93.933,299.190 93.998,299.867 94.674 C 302.323 97.131,307.015 96.181,307.571 93.114 C 307.918 91.195,307.046 89.904,304.461 88.517 C 301.821 87.101,301.505 85.546,303.887 85.696 L 304.750 85.750 304.800 86.709 L 304.850 87.667 306.008 87.667 L 307.167 87.667 307.167 85.937 C 307.167 84.755,307.101 84.154,306.958 84.039 C 306.219 83.439,303.309 82.996,302.281 83.326 M289.333 83.853 C 289.333 84.356,289.647 85.399,291.270 90.293 C 292.920 95.266,292.868 94.602,291.833 97.484 C 290.745 100.517,290.714 100.333,292.314 100.333 L 293.628 100.333 294.413 98.042 C 294.845 96.781,295.644 94.400,296.190 92.750 C 296.736 91.100,297.600 88.513,298.111 87.000 C 299.435 83.078,299.466 83.477,297.840 83.535 L 296.472 83.583 295.397 87.167 C 294.805 89.138,294.278 90.862,294.226 91.000 C 294.106 91.314,293.765 90.396,293.328 88.583 C 293.151 87.850,292.757 86.425,292.451 85.417 L 291.896 83.583 290.615 83.535 C 289.390 83.488,289.333 83.502,289.333 83.853 M248.958 86.249 C 249.564 86.954,249.480 92.677,248.857 93.182 C 248.221 93.696,246.791 93.627,246.345 93.061 C 245.939 92.545,245.816 87.253,246.191 86.430 C 246.576 85.584,248.290 85.472,248.958 86.249 M284.866 86.181 C 285.594 87.041,285.529 92.456,284.782 93.098 C 284.143 93.647,282.784 93.668,282.219 93.138 C 281.725 92.673,281.613 86.889,282.085 86.215 C 282.519 85.595,284.350 85.572,284.866 86.181 M274.098 88.384 C 274.464 88.810,274.500 88.998,274.500 90.500 C 274.500 92.873,274.007 93.319,271.375 93.329 L 270.333 93.333 270.333 90.568 L 270.333 87.802 272.015 87.859 C 273.618 87.914,273.715 87.938,274.098 88.384 M16.833 95.715 C 15.177 96.548,18.623 99.387,22.333 100.245 C 23.494 100.513,26.274 100.585,26.636 100.356 C 26.956 100.153,24.592 96.601,23.917 96.271 C 22.562 95.609,17.788 95.234,16.833 95.715 M102.883 95.672 C 101.283 95.834,99.498 96.261,99.226 96.548 C 98.902 96.890,96.833 100.012,96.833 100.159 C 96.833 101.298,102.619 100.298,105.116 98.727 C 108.791 96.415,107.879 95.168,102.883 95.672 " stroke="none" fill="#b4932c" fill-rule="evenodd"></path><path id="path3" d="M68.796 30.956 C 69.188 30.991,69.788 30.990,70.129 30.954 C 70.471 30.919,70.150 30.890,69.417 30.890 C 68.683 30.891,68.404 30.920,68.796 30.956 M71.542 31.115 C 71.702 31.157,71.965 31.157,72.125 31.115 C 72.285 31.073,72.154 31.039,71.833 31.039 C 71.512 31.039,71.381 31.073,71.542 31.115 M76.083 32.000 C 76.267 32.079,76.529 32.143,76.667 32.143 C 76.824 32.143,76.793 32.090,76.583 32.000 C 76.400 31.921,76.137 31.857,76.000 31.857 C 75.842 31.857,75.873 31.910,76.083 32.000 M82.417 35.500 C 82.961 36.050,83.444 36.500,83.490 36.500 C 83.535 36.500,83.128 36.050,82.583 35.500 C 82.039 34.950,81.556 34.500,81.510 34.500 C 81.465 34.500,81.872 34.950,82.417 35.500 M36.375 42.621 L 38.167 42.678 38.167 58.666 L 38.167 74.655 36.458 74.709 L 34.750 74.763 36.542 74.798 L 38.335 74.833 38.292 58.708 L 38.250 42.583 36.417 42.574 L 34.583 42.565 36.375 42.621 M59.368 42.623 C 59.982 42.655,61.032 42.656,61.701 42.624 C 62.370 42.592,61.867 42.566,60.583 42.566 C 59.300 42.565,58.753 42.591,59.368 42.623 M63.181 42.727 C 63.219 42.759,63.475 42.837,63.750 42.898 C 64.115 42.980,64.183 42.964,64.000 42.841 C 63.775 42.689,63.013 42.582,63.181 42.727 M64.667 43.219 C 64.667 43.248,64.910 43.491,65.208 43.760 L 65.750 44.250 65.260 43.708 C 64.804 43.203,64.667 43.090,64.667 43.219 M86.399 46.833 C 86.399 48.071,86.425 48.577,86.457 47.958 C 86.489 47.340,86.489 46.327,86.457 45.708 C 86.425 45.090,86.399 45.596,86.399 46.833 M66.234 48.417 C 66.234 49.883,66.260 50.461,66.291 49.700 C 66.322 48.940,66.322 47.740,66.290 47.034 C 66.259 46.328,66.234 46.950,66.234 48.417 M82.573 57.875 L 82.083 58.417 82.625 57.927 C 82.923 57.658,83.167 57.414,83.167 57.385 C 83.167 57.257,83.029 57.370,82.573 57.875 M81.417 58.771 C 81.117 59.026,81.056 59.127,81.264 59.024 C 81.569 58.872,82.142 58.324,81.979 58.339 C 81.945 58.343,81.692 58.537,81.417 58.771 M80.759 61.324 C 81.222 61.489,81.859 61.750,82.175 61.903 C 82.641 62.130,82.688 62.134,82.427 61.925 C 82.068 61.639,80.435 60.993,80.119 61.012 C 80.008 61.019,80.296 61.159,80.759 61.324 M58.788 63.120 C 59.084 63.157,59.609 63.158,59.955 63.122 C 60.300 63.086,60.058 63.055,59.417 63.055 C 58.775 63.054,58.492 63.083,58.788 63.120 M61.208 63.282 C 61.369 63.323,61.631 63.323,61.792 63.282 C 61.952 63.240,61.821 63.205,61.500 63.205 C 61.179 63.205,61.048 63.240,61.208 63.282 M64.667 64.219 C 64.667 64.248,64.910 64.491,65.208 64.760 L 65.750 65.250 65.260 64.708 C 64.804 64.203,64.667 64.090,64.667 64.219 M85.881 68.250 C 85.882 68.708,85.915 68.876,85.953 68.623 C 85.991 68.369,85.990 67.994,85.951 67.789 C 85.911 67.584,85.880 67.792,85.881 68.250 M66.545 68.333 C 66.545 68.746,66.578 68.915,66.618 68.708 C 66.657 68.502,66.657 68.165,66.618 67.958 C 66.578 67.752,66.545 67.921,66.545 68.333 M59.000 74.778 C 60.789 74.899,62.963 74.907,62.891 74.792 C 62.849 74.723,61.787 74.680,60.532 74.697 C 59.277 74.713,58.587 74.750,59.000 74.778 M86.417 74.773 C 87.582 74.896,89.297 74.907,89.225 74.792 C 89.182 74.723,88.420 74.679,87.532 74.693 C 86.643 74.708,86.142 74.744,86.417 74.773 M48.750 86.500 L 34.583 86.586 48.698 86.626 C 57.972 86.653,62.849 86.610,62.917 86.500 C 62.973 86.408,62.996 86.351,62.968 86.374 C 62.940 86.396,56.542 86.453,48.750 86.500 M77.917 86.500 L 66.583 86.587 77.865 86.627 C 85.250 86.653,89.183 86.609,89.250 86.500 C 89.307 86.408,89.330 86.351,89.302 86.373 C 89.273 86.395,84.150 86.452,77.917 86.500 " stroke="none" fill="#fca886" fill-rule="evenodd"></path><path id="path4" d="M43.054 30.792 C 47.713 30.816,55.288 30.816,59.888 30.792 C 64.487 30.767,60.675 30.747,51.417 30.747 C 42.158 30.747,38.395 30.767,43.054 30.792 M82.583 35.500 C 82.941 35.867,83.272 36.167,83.318 36.167 C 83.363 36.167,83.108 35.867,82.750 35.500 C 82.392 35.133,82.062 34.833,82.016 34.833 C 81.970 34.833,82.225 35.133,82.583 35.500 M86.539 46.833 C 86.539 47.154,86.573 47.285,86.615 47.125 C 86.657 46.965,86.657 46.702,86.615 46.542 C 86.573 46.381,86.539 46.512,86.539 46.833 M59.375 54.290 C 59.994 54.322,61.006 54.322,61.625 54.290 C 62.244 54.258,61.737 54.232,60.500 54.232 C 59.262 54.232,58.756 54.258,59.375 54.290 M86.069 71.667 C 86.069 73.362,86.094 74.056,86.124 73.208 C 86.154 72.360,86.154 70.973,86.124 70.125 C 86.094 69.277,86.069 69.971,86.069 71.667 M66.578 77.750 C 66.578 82.608,66.599 84.572,66.625 82.113 C 66.651 79.655,66.651 75.680,66.625 73.280 C 66.599 70.880,66.578 72.892,66.578 77.750 M62.917 80.667 C 62.917 83.949,62.973 86.600,63.042 86.558 C 63.110 86.515,63.167 83.864,63.167 80.667 C 63.167 77.469,63.110 74.818,63.042 74.776 C 62.973 74.733,62.917 77.384,62.917 80.667 M89.250 80.667 C 89.250 83.949,89.306 86.600,89.375 86.558 C 89.444 86.515,89.500 83.864,89.500 80.667 C 89.500 77.469,89.444 74.818,89.375 74.776 C 89.306 74.733,89.250 77.384,89.250 80.667 " stroke="none" fill="#fc936a" fill-rule="evenodd"></path></g></svg>