<svg id="svg" version="1.1" xmlns="http://www.w3.org/2000/svg" xmlns:xlink="http://www.w3.org/1999/xlink" width="400" height="130.53892215568862" viewBox="0, 0, 400,130.53892215568862"><g id="svgg"><path id="path0" d="M34.667 36.649 L 34.667 42.489 36.458 42.536 L 38.250 42.583 38.292 58.708 L 38.335 74.833 36.501 74.833 L 34.667 74.833 34.667 80.668 L 34.667 86.502 48.792 86.459 L 62.917 86.417 62.917 80.667 L 62.917 74.917 60.625 74.870 L 58.333 74.824 58.333 68.887 L 58.333 62.950 59.994 63.059 C 63.819 63.309,65.445 64.154,66.284 66.324 C 66.550 67.012,66.583 67.995,66.629 76.793 L 66.679 86.502 77.965 86.459 L 89.250 86.417 89.250 80.667 L 89.250 74.917 87.649 74.869 L 86.048 74.822 85.953 71.119 C 85.781 64.429,84.468 62.220,80.000 61.109 C 78.815 60.814,78.588 60.162,79.559 59.841 C 83.828 58.433,86.497 52.909,86.288 45.917 C 86.028 37.213,81.961 32.828,72.667 31.230 C 71.288 30.993,68.732 30.949,52.875 30.884 L 34.667 30.809 34.667 36.649 M64.271 42.961 C 65.974 43.847,66.392 45.065,66.307 48.892 C 66.202 53.599,65.461 54.333,60.808 54.333 L 58.333 54.333 58.333 48.397 L 58.333 42.460 60.958 42.532 C 63.230 42.595,63.676 42.652,64.271 42.961 " stroke="none" fill="#fcfbfb" fill-rule="evenodd"></path><path id="path1" d="M18.234 11.920 C 18.176 12.152,18.166 18.864,18.212 26.837 C 18.258 34.810,18.248 41.333,18.189 41.333 C 18.131 41.333,18.127 49.489,18.181 59.458 C 18.282 78.105,18.295 78.468,19.004 82.417 C 19.570 85.564,19.712 86.188,19.910 86.389 C 20.015 86.496,20.421 87.521,20.811 88.667 C 21.201 89.813,21.933 91.616,22.438 92.675 C 22.943 93.734,23.335 94.672,23.311 94.758 C 23.249 94.977,23.949 96.285,24.216 96.449 C 24.492 96.619,26.833 100.113,26.833 100.356 C 26.833 100.870,31.783 106.237,33.429 107.507 C 33.840 107.824,34.455 108.328,34.796 108.627 C 35.576 109.310,38.544 111.354,39.517 111.878 C 39.920 112.095,41.044 112.699,42.014 113.220 C 44.041 114.308,46.668 115.411,48.000 115.734 C 48.504 115.856,49.592 116.157,50.417 116.402 C 58.265 118.731,70.802 118.036,78.252 114.858 C 79.660 114.257,82.905 112.591,83.523 112.150 C 83.768 111.976,84.032 111.833,84.111 111.833 C 84.310 111.833,87.010 109.970,88.773 108.614 C 90.649 107.172,94.274 103.609,95.437 102.063 C 95.928 101.411,96.443 100.783,96.582 100.668 C 96.720 100.553,96.833 100.361,96.833 100.240 C 96.833 100.023,98.656 97.247,99.459 96.240 C 99.688 95.953,99.970 95.463,100.085 95.151 C 100.201 94.839,100.758 93.577,101.323 92.347 C 101.889 91.117,102.641 89.280,102.994 88.264 C 103.348 87.248,103.755 86.139,103.901 85.800 C 104.286 84.899,105.118 80.552,105.330 78.333 C 105.457 76.996,105.498 66.615,105.465 44.000 L 105.417 11.583 61.878 11.541 L 18.340 11.499 18.234 11.920 M264.500 31.250 L 264.500 33.667 266.250 33.667 L 268.000 33.667 268.000 31.250 L 268.000 28.833 266.250 28.833 L 264.500 28.833 264.500 31.250 M181.500 42.131 L 181.500 53.929 181.125 54.666 C 180.506 55.881,179.684 56.206,177.417 56.134 C 173.915 56.021,173.931 56.057,173.867 47.958 L 173.818 41.667 171.833 41.667 L 169.848 41.667 169.799 47.958 C 169.732 56.545,170.005 56.167,163.875 56.167 C 161.847 56.167,159.994 56.093,159.756 56.002 L 159.324 55.838 160.710 54.127 C 164.565 49.367,165.529 46.286,164.114 43.250 C 162.768 40.365,157.856 38.891,153.500 40.066 C 151.971 40.479,150.029 41.153,149.279 41.531 L 148.642 41.853 148.696 44.135 L 148.750 46.417 150.833 49.704 C 151.979 51.512,153.302 53.624,153.774 54.397 L 154.631 55.802 154.046 56.359 C 152.918 57.432,150.652 60.428,150.037 61.658 C 148.354 65.025,149.720 69.525,152.737 70.553 C 155.160 71.379,163.000 71.093,163.000 70.180 C 163.000 69.949,161.978 67.110,161.839 66.953 C 161.776 66.882,161.024 66.944,160.169 67.092 C 157.780 67.504,154.919 67.382,154.110 66.833 C 152.153 65.507,152.553 63.798,155.690 60.068 L 156.825 58.719 157.865 59.235 L 158.905 59.750 163.827 59.750 L 168.750 59.750 169.706 59.302 C 170.232 59.056,170.922 58.655,171.240 58.413 L 171.819 57.972 172.375 58.396 C 174.845 60.280,180.375 60.371,182.739 58.566 L 183.501 57.984 184.042 58.390 C 185.946 59.817,186.110 59.833,198.705 59.833 L 209.515 59.833 209.466 52.042 L 209.417 44.250 208.931 43.199 C 207.332 39.735,202.801 38.771,197.566 40.780 C 197.377 40.852,197.331 39.981,197.294 35.642 L 197.250 30.417 195.292 30.370 L 193.333 30.323 193.333 43.245 L 193.333 56.167 190.535 56.167 C 185.201 56.167,185.596 57.269,185.536 42.208 L 185.489 30.333 183.495 30.333 L 181.500 30.333 181.500 42.131 M72.804 31.065 C 81.565 32.523,85.897 36.947,86.496 45.049 C 86.997 51.813,84.592 57.450,80.252 59.687 C 78.943 60.362,78.913 60.649,80.121 60.921 C 84.411 61.887,85.963 64.502,86.122 71.036 L 86.210 74.655 87.813 74.703 L 89.417 74.750 89.417 80.667 L 89.417 86.583 78.000 86.583 L 66.583 86.583 66.494 76.917 C 66.432 70.174,66.346 67.082,66.210 66.694 C 65.378 64.322,63.926 63.520,59.958 63.237 L 58.333 63.121 58.333 68.889 L 58.333 74.658 60.708 74.704 L 63.083 74.750 63.083 80.667 L 63.083 86.583 48.875 86.626 L 34.667 86.669 34.667 80.668 L 34.667 74.667 36.417 74.667 L 38.167 74.667 38.167 58.667 L 38.167 42.667 36.417 42.667 L 34.667 42.667 34.667 36.654 L 34.667 30.642 52.875 30.710 C 69.102 30.771,71.271 30.810,72.804 31.065 M261.833 36.583 L 261.833 39.000 263.750 39.000 L 265.667 39.000 265.667 36.583 L 265.667 34.167 263.750 34.167 L 261.833 34.167 261.833 36.583 M266.833 36.583 L 266.833 39.000 268.750 39.000 L 270.667 39.000 270.667 36.583 L 270.667 34.167 268.750 34.167 L 266.833 34.167 266.833 36.583 M274.333 47.573 C 274.333 53.984,274.287 55.843,274.125 55.947 C 273.614 56.273,270.107 56.199,269.551 55.850 C 268.400 55.128,268.426 55.288,268.333 48.174 L 268.250 41.750 266.250 41.750 L 264.250 41.750 264.167 48.167 C 264.079 54.935,264.085 54.888,263.253 55.666 C 262.684 56.198,260.612 56.357,259.626 55.945 C 258.313 55.397,258.262 55.116,258.167 48.000 L 258.083 41.750 256.125 41.703 L 254.167 41.656 254.166 47.620 C 254.164 55.739,253.975 56.167,250.383 56.167 C 246.648 56.167,246.502 55.844,246.501 47.542 L 246.500 41.667 244.500 41.667 L 242.500 41.667 242.500 47.807 C 242.500 56.231,242.538 56.167,237.575 56.167 L 234.870 56.167 234.792 50.708 C 234.698 44.201,234.593 43.663,233.095 42.023 C 231.817 40.625,230.484 40.157,227.453 40.043 L 225.155 39.957 225.203 41.853 L 225.250 43.750 227.197 43.833 C 230.651 43.981,230.666 44.012,230.666 50.958 L 230.667 56.167 225.917 56.167 L 221.167 56.167 221.167 58.008 L 221.167 59.850 231.292 59.797 C 242.554 59.737,242.023 59.790,243.681 58.573 L 244.492 57.977 245.045 58.399 C 247.538 60.300,252.729 60.380,255.370 58.556 L 255.990 58.128 256.535 58.587 C 258.637 60.356,263.443 60.262,265.644 58.410 L 266.170 57.968 266.785 58.508 C 268.764 60.246,272.402 60.406,277.708 58.988 L 278.333 58.820 278.333 49.077 L 278.333 39.333 276.333 39.333 L 274.333 39.333 274.333 47.573 M344.000 47.575 L 344.000 55.818 343.375 55.991 C 342.192 56.320,339.607 56.215,339.102 55.819 C 338.095 55.026,338.091 54.998,338.000 48.083 L 337.917 41.750 335.971 41.703 L 334.025 41.656 333.971 47.953 C 333.912 54.813,333.923 54.728,332.919 55.667 C 332.281 56.263,329.709 56.292,328.896 55.712 C 327.778 54.915,327.756 54.767,327.699 47.875 L 327.648 41.667 325.741 41.667 L 323.833 41.667 323.833 47.807 C 323.833 54.906,323.808 55.040,322.332 55.792 C 320.648 56.650,317.497 56.185,316.593 54.946 C 316.262 54.492,316.248 54.238,316.203 47.648 L 316.156 40.821 315.731 40.659 C 312.309 39.358,306.927 39.508,304.833 40.962 C 302.675 42.461,302.455 43.217,302.376 49.428 C 302.295 55.754,302.544 57.059,304.110 58.527 C 305.914 60.217,310.951 60.299,313.977 58.687 L 314.538 58.389 315.870 59.069 L 317.203 59.750 319.976 59.748 C 322.984 59.747,323.483 59.629,325.037 58.556 L 325.656 58.128 326.202 58.587 C 328.307 60.359,332.983 60.274,335.259 58.422 L 335.767 58.008 336.376 58.510 C 338.480 60.244,342.089 60.401,347.375 58.988 L 348.000 58.820 348.000 49.077 L 348.000 39.333 346.000 39.333 L 344.000 39.333 344.000 47.575 M388.241 39.836 C 387.595 39.918,386.377 40.138,385.535 40.326 C 384.693 40.513,383.965 40.667,383.918 40.667 C 383.872 40.667,383.833 43.573,383.832 47.125 C 383.831 56.249,383.877 56.167,378.813 56.167 L 376.167 56.167 376.165 51.708 C 376.163 41.966,374.828 40.000,368.222 40.000 L 366.489 40.000 366.536 41.875 L 366.583 43.750 368.530 43.833 C 371.984 43.981,371.999 44.012,372.000 50.956 L 372.000 56.162 367.208 56.206 L 362.417 56.250 362.369 58.049 L 362.322 59.848 372.453 59.799 C 383.678 59.745,383.370 59.774,384.909 58.601 L 385.464 58.177 386.064 58.743 C 387.908 60.481,392.808 60.664,395.197 59.083 C 395.876 58.634,396.721 57.439,397.260 56.167 C 397.715 55.094,397.839 46.099,397.422 44.464 C 396.483 40.788,393.321 39.194,388.241 39.836 M285.798 51.125 C 285.752 61.711,285.734 62.281,285.430 62.896 C 284.903 63.957,283.443 64.302,280.975 63.948 L 280.032 63.813 279.683 65.302 C 279.097 67.796,279.041 67.750,282.667 67.750 C 286.755 67.750,289.031 66.103,289.508 62.798 C 289.592 62.222,289.661 56.856,289.663 50.875 L 289.667 40.000 287.757 40.000 L 285.847 40.000 285.798 51.125 M355.297 51.208 C 355.251 62.164,355.242 62.430,354.908 63.000 C 354.321 64.003,353.029 64.290,350.642 63.948 L 349.701 63.814 349.351 65.336 C 348.780 67.813,348.706 67.754,352.417 67.744 C 355.603 67.735,357.273 66.964,358.307 65.025 C 359.341 63.083,359.333 63.193,359.333 51.048 L 359.333 40.000 357.339 40.000 L 355.344 40.000 355.297 51.208 M58.333 48.394 L 58.333 54.167 60.640 54.167 C 65.253 54.167,65.999 53.473,66.128 49.068 C 66.284 43.709,65.573 42.842,60.907 42.700 L 58.333 42.622 58.333 48.394 M159.246 44.006 C 161.633 45.201,161.132 48.113,157.876 51.964 C 157.032 52.962,156.947 52.948,156.338 51.715 C 156.121 51.276,155.291 49.865,154.493 48.580 C 152.634 45.584,152.060 44.551,152.185 44.426 C 153.036 43.576,157.818 43.291,159.246 44.006 M204.450 43.931 C 205.469 44.678,205.499 44.880,205.500 50.792 L 205.500 56.167 201.417 56.167 L 197.333 56.167 197.333 50.357 L 197.333 44.547 198.708 44.183 C 201.696 43.393,203.601 43.309,204.450 43.931 M311.281 43.607 L 312.146 43.711 312.216 49.147 C 312.254 52.137,312.340 54.777,312.407 55.013 C 312.686 56.004,308.896 56.625,307.659 55.791 C 306.493 55.006,306.423 54.708,306.362 50.298 C 306.269 43.613,306.680 43.054,311.281 43.607 M392.328 43.792 C 393.527 44.397,393.583 44.670,393.583 49.917 C 393.583 56.003,393.420 56.388,390.833 56.401 C 387.989 56.415,387.917 56.234,387.917 49.083 L 387.917 43.750 388.583 43.649 C 390.035 43.428,391.735 43.493,392.328 43.792 M167.333 65.083 L 167.333 67.511 169.292 67.464 L 171.250 67.417 171.250 65.083 L 171.250 62.750 169.292 62.703 L 167.333 62.656 167.333 65.083 M172.333 65.083 L 172.333 67.500 174.333 67.500 L 176.333 67.500 176.333 65.083 L 176.333 62.667 174.333 62.667 L 172.333 62.667 172.333 65.083 M240.111 62.778 C 240.050 62.839,240.000 63.926,240.000 65.194 L 240.000 67.500 241.917 67.500 L 243.833 67.500 243.833 65.083 L 243.833 62.667 242.028 62.667 C 241.035 62.667,240.172 62.717,240.111 62.778 M245.000 65.083 L 245.000 67.500 247.000 67.500 L 249.000 67.500 249.000 65.083 L 249.000 62.667 247.000 62.667 L 245.000 62.667 245.000 65.083 " stroke="none" fill="#fb743c" fill-rule="evenodd"></path><path id="path2" d="M13.343 21.172 C 10.620 25.385,10.486 32.265,13.054 35.994 L 13.452 36.572 12.518 38.428 C 11.156 41.133,10.427 42.806,9.521 45.298 L 8.717 47.513 8.615 46.048 C 8.210 40.235,8.112 39.584,7.546 38.959 C 6.738 38.066,5.238 39.406,4.558 41.627 C 3.582 44.814,5.437 51.455,7.513 52.206 C 7.750 52.291,7.752 52.454,7.538 53.859 C 7.189 56.148,7.197 61.792,7.552 63.988 C 7.972 66.584,7.948 66.749,7.292 65.737 C 4.551 61.510,-0.000 58.487,-0.000 60.894 C 0.000 64.480,4.309 69.527,8.397 70.730 C 9.023 70.914,9.063 70.971,9.579 72.418 C 10.677 75.494,12.648 79.945,13.582 81.458 C 13.822 81.848,13.989 82.167,13.953 82.167 C 13.916 82.167,13.256 81.787,12.485 81.323 C 7.736 78.464,5.036 78.445,6.323 81.278 C 8.167 85.339,12.348 87.690,16.244 86.855 C 16.759 86.744,17.233 87.288,20.042 91.210 C 20.826 92.305,23.331 94.982,23.332 94.727 C 23.333 94.623,22.929 93.700,22.436 92.676 C 21.942 91.652,21.211 89.844,20.811 88.657 C 19.848 85.799,19.461 85.848,20.340 88.716 C 20.754 90.066,20.493 89.797,18.525 86.845 C 15.088 81.692,13.341 78.471,13.684 77.917 C 15.033 75.735,15.252 74.685,15.236 70.500 C 15.218 65.737,14.863 64.000,13.908 64.000 C 12.589 64.000,11.158 68.667,11.415 72.125 C 11.549 73.923,11.498 73.875,10.697 71.458 C 9.620 68.205,8.882 65.109,8.604 62.667 L 8.518 61.917 9.551 61.157 C 11.761 59.531,13.919 55.774,14.744 52.115 C 15.511 48.714,14.160 48.625,11.742 51.917 C 11.472 52.283,11.209 52.621,11.157 52.667 C 10.868 52.919,9.816 54.610,9.135 55.917 L 8.353 57.417 8.441 56.417 C 8.711 53.381,9.538 49.667,10.596 46.750 C 10.928 45.833,11.280 44.840,11.378 44.542 C 11.525 44.094,11.641 44.000,12.046 44.000 C 13.384 44.000,15.430 43.201,17.292 41.952 L 18.333 41.253 18.333 38.956 L 18.333 36.659 17.042 37.351 C 16.331 37.732,15.450 38.243,15.083 38.487 C 13.896 39.277,13.889 39.280,14.217 38.778 C 14.382 38.526,14.699 37.976,14.922 37.557 C 15.390 36.678,17.564 33.420,18.032 32.899 C 18.300 32.599,18.339 32.326,18.298 31.034 L 18.250 29.520 16.969 31.218 C 16.265 32.152,15.596 33.142,15.484 33.417 C 15.141 34.259,15.116 33.520,15.403 31.018 C 15.870 26.944,15.598 20.741,14.932 20.294 C 14.411 19.944,13.985 20.179,13.343 21.172 M108.681 20.474 C 107.979 21.784,107.812 28.285,108.376 32.282 C 108.495 33.125,108.572 33.794,108.547 33.770 C 108.507 33.729,107.193 31.875,106.083 30.292 C 105.421 29.347,105.291 29.483,105.361 31.042 C 105.422 32.391,105.440 32.441,106.327 33.750 C 107.583 35.604,107.663 35.726,108.724 37.442 C 109.881 39.314,109.881 39.292,108.708 38.520 C 107.676 37.840,105.759 36.833,105.495 36.833 C 105.317 36.833,105.265 40.629,105.438 41.078 C 105.808 42.044,109.954 44.000,111.631 44.000 C 112.185 44.000,112.219 44.060,113.206 46.833 C 114.235 49.726,114.895 52.865,115.095 55.826 L 115.180 57.083 114.433 55.611 C 113.598 53.965,112.345 52.226,110.817 50.593 C 107.918 47.494,108.094 51.387,111.137 57.667 C 111.605 58.633,113.335 60.573,114.480 61.417 C 115.063 61.847,115.148 61.987,115.084 62.417 C 115.043 62.692,114.889 63.742,114.742 64.750 C 114.369 67.313,113.432 70.779,112.603 72.667 C 112.352 73.237,112.346 73.209,112.340 71.398 C 112.326 67.331,110.677 63.312,109.365 64.144 C 109.244 64.220,108.958 65.175,108.727 66.266 C 107.759 70.854,108.326 75.409,110.189 78.010 C 110.386 78.285,110.245 78.561,107.602 83.083 C 106.631 84.744,103.069 90.000,102.914 90.000 C 102.889 90.000,103.040 89.456,103.249 88.792 C 104.165 85.884,103.969 85.420,103.005 88.215 C 102.636 89.285,101.841 91.231,101.239 92.539 C 100.637 93.847,100.105 95.029,100.057 95.167 C 99.744 96.062,104.015 91.026,105.967 88.197 L 106.851 86.917 108.551 86.968 C 111.478 87.056,113.700 86.164,115.561 84.154 C 120.105 79.246,116.990 77.496,110.958 81.568 C 110.340 81.986,109.833 82.297,109.833 82.260 C 109.833 82.222,110.391 81.070,111.073 79.699 C 111.754 78.328,112.437 76.916,112.590 76.562 C 113.474 74.507,114.055 72.966,114.307 72.007 C 114.578 70.970,114.617 70.917,115.171 70.824 C 118.634 70.242,123.169 65.253,123.763 61.373 C 124.256 58.152,118.963 61.598,116.017 66.417 C 115.834 66.716,115.822 66.700,115.904 66.250 C 116.720 61.767,116.804 55.146,116.077 52.667 C 116.035 52.523,116.206 52.281,116.478 52.098 C 118.488 50.747,120.005 44.947,119.164 41.824 C 118.558 39.572,116.928 38.029,116.137 38.958 C 115.543 39.655,115.498 39.958,115.058 46.155 C 114.935 47.882,114.899 47.861,114.322 45.708 C 113.881 44.062,113.031 42.043,111.565 39.160 C 110.129 36.334,110.210 36.706,110.824 35.738 C 112.167 33.619,112.868 30.200,112.526 27.425 C 112.015 23.259,109.562 18.827,108.681 20.474 M283.111 79.778 C 283.050 79.839,283.000 83.179,283.000 87.200 C 283.000 95.428,283.037 95.176,281.783 95.514 C 280.891 95.754,279.525 95.570,279.000 95.138 L 278.583 94.796 278.500 90.273 L 278.417 85.750 277.167 85.750 L 275.917 85.750 275.872 90.188 L 275.828 94.627 275.399 95.055 C 274.857 95.598,273.710 95.791,272.671 95.516 C 271.244 95.137,271.176 94.869,271.171 89.625 L 271.167 85.667 269.917 85.667 L 268.667 85.667 268.667 90.061 C 268.667 95.440,268.409 95.951,265.875 95.604 C 264.137 95.365,264.000 94.978,264.000 90.308 L 264.000 86.667 262.750 86.667 L 261.500 86.667 261.500 90.561 C 261.500 95.535,261.421 95.663,258.375 95.666 L 257.167 95.667 257.167 90.667 L 257.167 85.667 255.925 85.667 L 254.684 85.667 254.634 92.292 C 254.572 100.367,254.513 100.557,252.056 100.535 C 250.032 100.517,249.933 100.242,249.833 94.333 L 249.750 89.417 248.547 89.368 C 247.021 89.306,247.109 88.949,247.205 94.795 C 247.305 100.880,247.729 102.011,250.187 102.741 C 253.491 103.722,256.478 102.186,257.029 99.221 L 257.217 98.212 258.953 98.123 C 260.455 98.047,260.831 97.965,261.740 97.517 C 262.984 96.905,262.896 96.915,263.465 97.329 C 264.788 98.294,267.335 98.362,269.105 97.480 L 270.127 96.970 270.799 97.395 C 272.291 98.337,274.837 98.336,276.462 97.395 L 277.173 96.982 278.291 97.533 C 279.890 98.320,281.777 98.324,283.352 97.543 L 284.412 97.018 285.494 97.551 L 286.576 98.083 289.705 98.143 L 292.833 98.203 292.833 88.928 L 292.833 79.653 291.542 79.701 L 290.250 79.750 290.207 87.708 L 290.163 95.667 288.752 95.667 C 285.540 95.667,285.667 96.023,285.667 86.992 L 285.667 79.667 284.444 79.667 C 283.772 79.667,283.172 79.717,283.111 79.778 M268.667 82.583 L 268.667 84.167 269.917 84.167 L 271.167 84.167 271.167 82.583 L 271.167 81.000 269.917 81.000 L 268.667 81.000 268.667 82.583 M250.500 83.924 L 250.500 85.515 251.708 85.466 L 252.917 85.417 252.965 83.875 L 253.013 82.333 251.756 82.333 L 250.500 82.333 250.500 83.924 M16.833 95.715 C 15.177 96.548,18.623 99.387,22.333 100.245 C 23.494 100.513,26.274 100.585,26.636 100.356 C 26.956 100.153,24.592 96.601,23.917 96.271 C 22.562 95.609,17.788 95.234,16.833 95.715 M102.883 95.672 C 101.283 95.834,99.498 96.261,99.226 96.548 C 98.902 96.890,96.833 100.012,96.833 100.159 C 96.833 101.298,102.619 100.298,105.116 98.727 C 108.791 96.415,107.879 95.168,102.883 95.672 M260.000 101.250 L 260.000 102.833 261.250 102.833 L 262.500 102.833 262.500 101.250 L 262.500 99.667 261.250 99.667 L 260.000 99.667 260.000 101.250 M263.167 101.250 L 263.167 102.833 264.417 102.833 L 265.667 102.833 265.667 101.250 L 265.667 99.667 264.417 99.667 L 263.167 99.667 263.167 101.250 M275.951 99.771 C 275.886 99.836,275.833 100.555,275.833 101.368 L 275.833 102.847 277.125 102.799 L 278.417 102.750 278.417 101.250 L 278.417 99.750 277.243 99.702 C 276.597 99.675,276.016 99.706,275.951 99.771 " stroke="none" fill="#b4932c" fill-rule="evenodd"></path><path id="path3" d="M68.796 30.956 C 69.188 30.991,69.788 30.990,70.129 30.954 C 70.471 30.919,70.150 30.890,69.417 30.890 C 68.683 30.891,68.404 30.920,68.796 30.956 M71.542 31.115 C 71.702 31.157,71.965 31.157,72.125 31.115 C 72.285 31.073,72.154 31.039,71.833 31.039 C 71.512 31.039,71.381 31.073,71.542 31.115 M76.083 32.000 C 76.267 32.079,76.529 32.143,76.667 32.143 C 76.824 32.143,76.793 32.090,76.583 32.000 C 76.400 31.921,76.137 31.857,76.000 31.857 C 75.842 31.857,75.873 31.910,76.083 32.000 M82.417 35.500 C 82.961 36.050,83.444 36.500,83.490 36.500 C 83.535 36.500,83.128 36.050,82.583 35.500 C 82.039 34.950,81.556 34.500,81.510 34.500 C 81.465 34.500,81.872 34.950,82.417 35.500 M36.375 42.621 L 38.167 42.678 38.167 58.666 L 38.167 74.655 36.458 74.709 L 34.750 74.763 36.542 74.798 L 38.335 74.833 38.292 58.708 L 38.250 42.583 36.417 42.574 L 34.583 42.565 36.375 42.621 M59.368 42.623 C 59.982 42.655,61.032 42.656,61.701 42.624 C 62.370 42.592,61.867 42.566,60.583 42.566 C 59.300 42.565,58.753 42.591,59.368 42.623 M63.181 42.727 C 63.219 42.759,63.475 42.837,63.750 42.898 C 64.115 42.980,64.183 42.964,64.000 42.841 C 63.775 42.689,63.013 42.582,63.181 42.727 M64.667 43.219 C 64.667 43.248,64.910 43.491,65.208 43.760 L 65.750 44.250 65.260 43.708 C 64.804 43.203,64.667 43.090,64.667 43.219 M86.399 46.833 C 86.399 48.071,86.425 48.577,86.457 47.958 C 86.489 47.340,86.489 46.327,86.457 45.708 C 86.425 45.090,86.399 45.596,86.399 46.833 M66.234 48.417 C 66.234 49.883,66.260 50.461,66.291 49.700 C 66.322 48.940,66.322 47.740,66.290 47.034 C 66.259 46.328,66.234 46.950,66.234 48.417 M82.573 57.875 L 82.083 58.417 82.625 57.927 C 82.923 57.658,83.167 57.414,83.167 57.385 C 83.167 57.257,83.029 57.370,82.573 57.875 M81.417 58.771 C 81.117 59.026,81.056 59.127,81.264 59.024 C 81.569 58.872,82.142 58.324,81.979 58.339 C 81.945 58.343,81.692 58.537,81.417 58.771 M80.759 61.324 C 81.222 61.489,81.859 61.750,82.175 61.903 C 82.641 62.130,82.688 62.134,82.427 61.925 C 82.068 61.639,80.435 60.993,80.119 61.012 C 80.008 61.019,80.296 61.159,80.759 61.324 M58.788 63.120 C 59.084 63.157,59.609 63.158,59.955 63.122 C 60.300 63.086,60.058 63.055,59.417 63.055 C 58.775 63.054,58.492 63.083,58.788 63.120 M61.208 63.282 C 61.369 63.323,61.631 63.323,61.792 63.282 C 61.952 63.240,61.821 63.205,61.500 63.205 C 61.179 63.205,61.048 63.240,61.208 63.282 M64.667 64.219 C 64.667 64.248,64.910 64.491,65.208 64.760 L 65.750 65.250 65.260 64.708 C 64.804 64.203,64.667 64.090,64.667 64.219 M85.881 68.250 C 85.882 68.708,85.915 68.876,85.953 68.623 C 85.991 68.369,85.990 67.994,85.951 67.789 C 85.911 67.584,85.880 67.792,85.881 68.250 M66.545 68.333 C 66.545 68.746,66.578 68.915,66.618 68.708 C 66.657 68.502,66.657 68.165,66.618 67.958 C 66.578 67.752,66.545 67.921,66.545 68.333 M59.000 74.778 C 60.789 74.899,62.963 74.907,62.891 74.792 C 62.849 74.723,61.787 74.680,60.532 74.697 C 59.277 74.713,58.587 74.750,59.000 74.778 M86.417 74.773 C 87.582 74.896,89.297 74.907,89.225 74.792 C 89.182 74.723,88.420 74.679,87.532 74.693 C 86.643 74.708,86.142 74.744,86.417 74.773 M48.750 86.500 L 34.583 86.586 48.698 86.626 C 57.972 86.653,62.849 86.610,62.917 86.500 C 62.973 86.408,62.996 86.351,62.968 86.374 C 62.940 86.396,56.542 86.453,48.750 86.500 M77.917 86.500 L 66.583 86.587 77.865 86.627 C 85.250 86.653,89.183 86.609,89.250 86.500 C 89.307 86.408,89.330 86.351,89.302 86.373 C 89.273 86.395,84.150 86.452,77.917 86.500 " stroke="none" fill="#fca886" fill-rule="evenodd"></path><path id="path4" d="M43.054 30.792 C 47.713 30.816,55.288 30.816,59.888 30.792 C 64.487 30.767,60.675 30.747,51.417 30.747 C 42.158 30.747,38.395 30.767,43.054 30.792 M82.583 35.500 C 82.941 35.867,83.272 36.167,83.318 36.167 C 83.363 36.167,83.108 35.867,82.750 35.500 C 82.392 35.133,82.062 34.833,82.016 34.833 C 81.970 34.833,82.225 35.133,82.583 35.500 M86.539 46.833 C 86.539 47.154,86.573 47.285,86.615 47.125 C 86.657 46.965,86.657 46.702,86.615 46.542 C 86.573 46.381,86.539 46.512,86.539 46.833 M59.375 54.290 C 59.994 54.322,61.006 54.322,61.625 54.290 C 62.244 54.258,61.737 54.232,60.500 54.232 C 59.262 54.232,58.756 54.258,59.375 54.290 M86.069 71.667 C 86.069 73.362,86.094 74.056,86.124 73.208 C 86.154 72.360,86.154 70.973,86.124 70.125 C 86.094 69.277,86.069 69.971,86.069 71.667 M66.578 77.750 C 66.578 82.608,66.599 84.572,66.625 82.113 C 66.651 79.655,66.651 75.680,66.625 73.280 C 66.599 70.880,66.578 72.892,66.578 77.750 M62.917 80.667 C 62.917 83.949,62.973 86.600,63.042 86.558 C 63.110 86.515,63.167 83.864,63.167 80.667 C 63.167 77.469,63.110 74.818,63.042 74.776 C 62.973 74.733,62.917 77.384,62.917 80.667 M89.250 80.667 C 89.250 83.949,89.306 86.600,89.375 86.558 C 89.444 86.515,89.500 83.864,89.500 80.667 C 89.500 77.469,89.444 74.818,89.375 74.776 C 89.306 74.733,89.250 77.384,89.250 80.667 " stroke="none" fill="#fc936a" fill-rule="evenodd"></path></g></svg>